<?xml version="1.0" standalone="no"?>
<!DOCTYPE svg PUBLIC "-//W3C//DTD SVG 20010904//EN"
 "http://www.w3.org/TR/2001/REC-SVG-20010904/DTD/svg10.dtd">
<svg version="1.0" xmlns="http://www.w3.org/2000/svg"
 width="868.000000pt" height="850.000000pt" viewBox="0 0 868.000000 850.000000"
 preserveAspectRatio="xMidYMid meet">

<g transform="translate(0.000000,850.000000) scale(0.100000,-0.100000)"
fill="#C9A96E" stroke="none">
<path d="M4028 8363 c29 -2 74 -2 100 0 26 2 2 3 -53 3 -55 0 -76 -1 -47 -3z"/>
<path d="M4261 8366 c2 -2 92 -5 199 -8 122 -3 163 -2 110 2 -88 8 -316 13
-309 6z"/>
<path d="M3790 8350 c-20 -4 5 -5 55 -2 50 2 92 6 94 8 8 7 -113 2 -149 -6z"/>
<path d="M4678 8343 c12 -2 32 -2 45 0 12 2 2 4 -23 4 -25 0 -35 -2 -22 -4z"/>
<path d="M3693 8333 c9 -2 25 -2 35 0 9 3 1 5 -18 5 -19 0 -27 -2 -17 -5z"/>
<path d="M4865 8320 c129 -20 151 -23 144 -15 -7 7 -204 35 -236 34 -16 0 26
-9 92 -19z"/>
<path d="M3623 8323 c9 -2 25 -2 35 0 9 3 1 5 -18 5 -19 0 -27 -2 -17 -5z"/>
<path d="M3568 8313 c6 -2 18 -2 25 0 6 3 1 5 -13 5 -14 0 -19 -2 -12 -5z"/>
<path d="M3508 8303 c6 -2 18 -2 25 0 6 3 1 5 -13 5 -14 0 -19 -2 -12 -5z"/>
<path d="M3453 8293 c9 -2 23 -2 30 0 6 3 -1 5 -18 5 -16 0 -22 -2 -12 -5z"/>
<path d="M5160 8266 c804 -188 1523 -597 2101 -1194 460 -475 830 -1125 1013
-1782 107 -386 136 -580 143 -970 5 -238 2 -301 -16 -465 -36 -317 -73 -502
-162 -800 -159 -529 -417 -1016 -737 -1388 -120 -140 -357 -365 -389 -370 -15
-2 -1 -3 32 0 88 6 237 37 350 74 464 148 746 447 841 889 18 88 28 298 14
320 -7 10 -10 -25 -10 -106 0 -67 -7 -158 -15 -201 -42 -221 -151 -431 -303
-582 -96 -96 -180 -155 -310 -221 -97 -48 -342 -135 -361 -128 -5 2 31 46 81
98 412 435 723 1025 898 1704 95 369 125 607 125 996 0 384 -28 608 -125 1005
-103 422 -312 917 -525 1245 -12 19 -44 69 -71 110 -61 96 -230 323 -308 414
-167 196 -423 436 -645 605 -126 96 -340 239 -436 291 -33 18 -89 50 -125 70
-62 34 -345 167 -435 202 -226 91 -581 195 -721 212 -27 4 16 -9 96 -28z"/>
<path d="M3360 8280 c-20 -6 -21 -8 -5 -8 11 0 34 4 50 8 27 7 27 8 5 8 -14 0
-36 -4 -50 -8z"/>
<path d="M3308 8263 c7 -3 16 -2 19 1 4 3 -2 6 -13 5 -11 0 -14 -3 -6 -6z"/>
<path d="M3268 8253 c7 -3 16 -2 19 1 4 3 -2 6 -13 5 -11 0 -14 -3 -6 -6z"/>
<path d="M3228 8243 c7 -3 16 -2 19 1 4 3 -2 6 -13 5 -11 0 -14 -3 -6 -6z"/>
<path d="M3188 8233 c7 -3 16 -2 19 1 4 3 -2 6 -13 5 -11 0 -14 -3 -6 -6z"/>
<path d="M3118 8213 c7 -3 16 -2 19 1 4 3 -2 6 -13 5 -11 0 -14 -3 -6 -6z"/>
<path d="M2940 8165 c-36 -13 -60 -24 -54 -24 5 -1 41 10 80 23 38 14 62 24
54 24 -8 0 -44 -10 -80 -23z"/>
<path d="M2812 8123 c-24 -8 -41 -17 -39 -19 4 -5 97 26 97 32 0 6 -11 4 -58
-13z"/>
<path d="M2730 8090 c-8 -5 -10 -10 -5 -10 6 0 17 5 25 10 8 5 11 10 5 10 -5
0 -17 -5 -25 -10z"/>
<path d="M2655 8059 c-22 -10 -29 -16 -15 -13 28 7 80 33 65 33 -5 0 -28 -9
-50 -20z"/>
<path d="M2550 8015 c-14 -8 -20 -14 -15 -14 6 0 21 6 35 14 14 8 21 14 15 14
-5 0 -21 -6 -35 -14z"/>
<path d="M2423 7960 c-46 -21 -83 -41 -83 -44 0 -4 170 71 179 80 12 12 -23
-1 -96 -36z"/>
<path d="M2233 7860 c-40 -23 -73 -43 -73 -46 0 -5 129 64 145 78 17 15 0 8
-72 -32z"/>
<path d="M2085 7774 c-147 -88 -377 -252 -460 -328 -22 -21 7 0 64 44 82 65
310 221 447 307 10 6 17 12 14 12 -3 1 -32 -15 -65 -35z"/>
<path d="M3920 7720 c-438 -44 -897 -180 -1275 -379 -319 -167 -576 -362 -855
-648 -309 -315 -532 -644 -699 -1028 -175 -401 -271 -819 -290 -1262 -14 -310
2 -524 60 -806 105 -514 326 -973 686 -1422 233 -292 523 -555 848 -772 344
-229 784 -426 1150 -515 293 -71 439 -89 765 -95 238 -4 301 -2 469 16 107 12
222 28 256 36 l62 15 204 -69 c197 -67 408 -126 613 -171 l98 -22 -88 -40
c-441 -196 -842 -301 -1324 -345 -152 -14 -592 -7 -750 11 -830 97 -1671 487
-2346 1088 -769 686 -1240 1588 -1346 2578 -20 187 -17 686 6 875 45 384 140
753 281 1085 19 46 33 85 31 87 -6 6 -91 -195 -145 -345 -54 -147 -92 -280
-93 -319 0 -13 -4 -23 -8 -23 -4 0 -7 -14 -8 -32 0 -17 -6 -34 -12 -38 -8 -5
-10 -20 -5 -41 5 -26 4 -31 -5 -19 -9 12 -10 11 -5 -7 3 -13 2 -23 -3 -23 -13
0 -42 -189 -37 -240 4 -35 3 -40 -5 -25 -7 15 -9 6 -5 -35 3 -38 2 -49 -4 -35
-7 14 -8 -6 -6 -60 2 -53 1 -65 -4 -35 -18 123 -37 -434 -22 -657 47 -729 255
-1336 674 -1963 300 -450 732 -876 1202 -1185 218 -143 265 -170 486 -281 381
-190 787 -326 1163 -389 224 -37 308 -45 556 -52 639 -17 1318 125 1840 387
l121 61 107 -15 c562 -79 1097 -12 1465 181 236 125 388 258 522 459 198 294
256 680 171 1129 -36 188 -57 235 -35 78 22 -160 -34 -402 -131 -563 -128
-213 -263 -336 -507 -459 -98 -50 -118 -65 -48 -35 70 29 220 116 289 168 37
28 72 50 77 48 5 -1 8 4 7 10 -2 7 3 12 10 10 6 -1 11 3 10 10 -2 7 3 13 10
14 6 1 17 2 22 3 6 0 10 9 8 19 -2 10 2 16 11 14 7 -1 19 2 26 8 16 13 15 -4
-2 -36 -7 -12 -8 -26 -3 -35 5 -7 7 -22 4 -33 -5 -13 -2 -17 7 -12 8 4 6 1 -4
-7 -12 -10 -14 -17 -7 -22 5 -3 8 -11 5 -16 -4 -5 -1 -9 4 -9 19 0 12 -29 -9
-40 -22 -12 -17 -40 7 -40 13 0 13 -2 2 -17 -9 -11 -10 -14 -2 -9 9 5 11 2 7
-8 -3 -9 -10 -13 -16 -10 -5 3 -2 -10 6 -30 13 -32 13 -37 -1 -44 -14 -8 -13
-10 1 -15 14 -6 14 -9 -5 -31 -12 -14 -27 -23 -33 -20 -6 3 -2 -2 8 -10 18
-15 15 -21 -8 -17 -5 1 -3 -6 5 -15 8 -10 9 -15 3 -11 -11 6 -48 -37 -49 -56
0 -5 -8 -14 -17 -21 -10 -7 -18 -17 -18 -22 0 -12 76 62 121 119 22 27 39 46
39 42 0 -14 -112 -145 -162 -190 -32 -28 -55 -42 -66 -39 -13 5 -14 4 -4 -4
16 -11 -24 -44 -138 -115 -242 -149 -538 -241 -865 -268 -153 -13 -501 -7
-650 11 -771 91 -1746 473 -2455 963 -628 434 -1166 959 -1550 1512 -390 562
-619 1174 -620 1654 0 401 136 725 418 992 53 51 82 82 64 70 -51 -35 -184
-172 -240 -248 -73 -96 -184 -294 -178 -316 3 -11 2 -16 -2 -13 -14 14 -54
-109 -81 -249 -53 -271 -33 -553 63 -888 137 -477 412 -961 823 -1449 141
-168 451 -485 628 -643 512 -458 1148 -856 1748 -1094 96 -39 131 -61 95 -61
-7 0 -75 -9 -151 -20 -253 -37 -545 -44 -832 -19 -506 42 -1055 231 -1550 532
-480 292 -946 772 -1220 1257 -282 498 -428 1051 -428 1615 1 1009 425 1951
1173 2609 437 385 992 663 1535 770 243 47 341 57 611 63 466 10 746 -26 1126
-143 725 -223 1319 -662 1792 -1324 360 -504 605 -1161 671 -1802 25 -248 16
-632 -21 -858 -80 -494 -256 -950 -520 -1355 -118 -180 -283 -382 -296 -362
-5 8 -8 4 -8 -10 0 -34 -14 -35 -46 -2 -16 17 -47 41 -69 52 -39 22 -48 22
-608 25 l-568 3 3 57 3 57 550 0 c537 0 551 0 595 -21 47 -22 93 -61 122 -104
17 -25 17 -24 17 37 1 58 -1 65 -36 102 -21 22 -58 50 -83 63 -45 23 -47 23
-479 26 l-433 2 -2 60 -1 60 406 0 c330 0 415 -3 456 -15 101 -30 162 -93 165
-174 1 -25 4 4 7 64 l6 110 -51 50 c-95 95 -52 90 -686 93 l-557 3 3 47 c3 26
5 53 5 60 1 9 116 12 544 12 603 0 578 2 661 -70 46 -41 58 -63 67 -120 4 -32
7 -13 8 66 l1 112 -45 50 c-83 92 -100 96 -400 100 l-260 4 1 60 2 60 251 -1
c266 -2 273 -3 348 -53 59 -40 87 -83 94 -148 4 -37 7 -9 8 90 4 230 0 365
-10 368 -5 2 -9 10 -9 17 0 7 -23 34 -51 59 -82 74 -96 76 -521 76 l-368 0 0
63 0 62 382 -5 383 -5 50 -27 c57 -30 123 -92 131 -122 3 -12 6 -38 7 -58 1
-20 5 -39 7 -42 3 -2 5 110 5 249 0 139 -3 251 -7 249 -4 -3 -4 -12 -1 -22 7
-21 -3 -10 -40 39 -14 21 -46 46 -70 58 -41 20 -59 21 -315 21 l-272 0 0 66 0
66 253 -4 c249 -3 253 -3 309 -30 51 -24 82 -50 123 -104 13 -17 14 -14 15 40
0 57 -2 61 -44 102 -26 24 -68 51 -100 63 -55 20 -72 21 -602 21 l-545 0 3 53
3 52 395 5 395 6 -457 -1 c-251 0 -458 -2 -461 -5 -2 -3 -7 -464 -11 -1025 -3
-561 -9 -1037 -13 -1058 -5 -21 -12 -38 -18 -38 -18 0 -23 81 -30 540 l-8 453
-55 59 c-33 36 -78 71 -115 89 l-60 30 -577 0 -577 0 -71 -35 c-38 -20 -86
-53 -106 -75 l-36 -40 0 39 c0 22 4 50 9 63 15 40 94 109 161 142 l65 31 550
0 c606 0 582 2 683 -65 74 -50 103 -90 118 -164 9 -49 12 217 11 1324 0 762
-2 1370 -4 1353 l-4 -33 -32 42 c-18 23 -54 56 -81 75 -93 64 -95 64 -697 61
l-544 -3 -83 -39 c-62 -30 -93 -52 -123 -87 l-39 -47 1 -663 c1 -365 5 -644 9
-620 9 59 90 138 175 171 58 23 73 24 388 28 l327 4 0 -65 0 -66 -343 -3 -342
-3 -67 -33 c-36 -17 -84 -50 -107 -72 l-41 -40 1 -257 c1 -142 5 -238 8 -212
7 49 33 88 84 127 45 34 126 70 167 74 l35 3 0 -65 0 -65 -55 -6 c-67 -6 -135
-38 -195 -91 l-45 -40 1 -111 c1 -62 4 -100 6 -85 7 44 77 114 151 150 l67 33
573 3 574 3 51 -24 c105 -48 177 -136 177 -215 l0 -44 -67 62 c-109 102 -53
95 -733 95 l-595 0 -54 -28 c-29 -16 -76 -49 -102 -74 l-49 -46 1 -121 c1 -82
4 -106 8 -76 8 54 28 86 80 128 95 76 160 91 404 92 l147 0 0 -64 0 -65 -217
-3 c-253 -4 -274 -10 -368 -99 l-55 -52 1 -251 c1 -138 5 -233 8 -211 4 22 12
49 18 61 21 37 104 105 161 132 l57 27 403 3 402 3 0 -65 0 -66 -412 0 -412 0
-63 -29 c-34 -16 -85 -51 -113 -77 -47 -44 -50 -50 -50 -96 l0 -49 -86 73
c-47 40 -140 120 -207 177 -252 215 -515 495 -734 781 -312 409 -536 872 -604
1247 -27 148 -29 349 -5 474 72 379 300 665 676 847 124 61 121 68 -6 14 -342
-147 -565 -361 -681 -652 -60 -150 -74 -228 -80 -430 -4 -150 -2 -193 17 -304
78 -460 311 -914 730 -1422 335 -406 837 -832 1365 -1156 251 -155 589 -329
870 -448 190 -81 296 -122 301 -117 3 3 -5 7 -300 132 -170 73 -450 208 -584
282 -43 24 -60 38 -51 44 8 4 18 1 27 -9 10 -12 12 -13 7 -2 -4 9 0 7 9 -4 8
-10 20 -15 27 -11 8 6 5 14 -12 27 -22 17 -20 17 19 -2 45 -22 54 -31 23 -23
-39 10 -30 -17 14 -42 42 -25 84 -28 70 -5 -3 6 1 7 10 4 14 -6 14 -7 -1 -18
-13 -10 -5 -18 56 -50 49 -25 75 -34 80 -27 3 7 14 9 23 5 9 -3 15 -9 13 -13
-2 -3 7 -7 20 -7 13 -1 24 -1 24 1 0 6 -150 75 -163 75 -9 0 -18 4 -21 9 -11
17 51 -2 134 -41 575 -272 1004 -421 1488 -517 l104 -21 86 56 c47 31 122 84
167 117 105 80 352 327 447 447 162 204 359 532 458 763 136 318 230 695 261
1047 16 188 6 590 -20 787 -121 902 -591 1773 -1272 2357 -491 421 -1096 689
-1764 782 -138 19 -692 28 -835 14z m550 -2235 l0 -65 -208 0 c-167 0 -218 -3
-258 -16 -59 -20 -117 -61 -150 -105 l-24 -33 0 51 c0 58 31 113 94 162 21 17
39 31 40 31 1 0 26 9 56 20 48 17 82 19 253 20 l197 0 0 -65z m765 44 c72 -27
157 -104 173 -157 7 -22 12 -55 12 -75 l0 -35 -58 57 c-100 100 -77 96 -474
99 l-348 3 0 64 0 65 320 0 c298 0 323 -1 375 -21z m-767 -322 l-3 -56 -211
-5 c-246 -6 -285 -16 -371 -92 l-53 -46 0 39 c0 46 42 119 88 152 84 59 113
66 332 71 113 3 209 2 213 -1 4 -3 7 -31 5 -62z m784 36 c53 -24 133 -94 154
-134 8 -16 14 -49 14 -74 l0 -46 -50 51 c-28 29 -75 63 -107 78 l-58 27 -332
3 -333 3 0 58 c0 32 2 60 4 62 2 2 152 2 333 -1 309 -5 331 -6 375 -27z
m-3528 -142 c-4 -17 -9 -30 -11 -27 -3 2 -2 19 2 36 9 41 17 33 9 -9z m-17
-73 c-3 -8 -6 -5 -6 6 -1 11 2 17 5 13 3 -3 4 -12 1 -19z m-1520 -10 c-3 -8
-6 -5 -6 6 -1 11 2 17 5 13 3 -3 4 -12 1 -19z m4683 -93 l0 -64 -427 -3 c-423
-3 -428 -3 -475 -26 -25 -13 -68 -42 -94 -65 l-47 -42 6 52 c7 64 26 93 87
138 98 72 82 69 530 75 223 3 408 4 413 2 4 -2 7 -32 7 -67z m-3179 -25 c-8
-69 -9 -71 -10 -24 -1 52 10 127 16 109 2 -6 -1 -44 -6 -85z m3536 75 c106
-32 193 -127 193 -213 l0 -45 -47 45 c-84 77 -128 92 -280 96 l-133 4 0 64 0
64 108 0 c67 0 128 -6 159 -15z m-5050 -27 c-3 -7 -5 -2 -5 12 0 14 2 19 5 13
2 -7 2 -19 0 -25z m-10 -55 c-3 -10 -5 -4 -5 12 0 17 2 24 5 18 2 -7 2 -21 0
-30z m1520 -260 c-2 -16 -4 -3 -4 27 0 30 2 43 4 28 2 -16 2 -40 0 -55z m2431
15 l-3 -63 -57 -6 c-71 -8 -157 -49 -197 -95 l-31 -35 0 49 c0 41 5 55 36 90
54 63 161 121 227 122 l28 0 -3 -62z m1089 47 c61 -18 136 -68 175 -117 22
-26 31 -50 35 -94 l6 -59 -56 53 c-31 29 -80 64 -109 77 l-53 25 -497 0 -498
0 0 65 0 65 473 0 c393 0 482 -3 524 -15z m-3510 -172 c-3 -10 -5 -4 -5 12 0
17 2 24 5 18 2 -7 2 -21 0 -30z m-1570 -55 c-2 -18 -4 -6 -4 27 0 33 2 48 4
33 2 -15 2 -42 0 -60z m1580 -10 c-3 -7 -5 -2 -5 12 0 14 2 19 5 13 2 -7 2
-19 0 -25z m3534 -41 c69 -34 142 -97 163 -141 9 -19 16 -54 16 -79 l0 -46
-52 56 c-29 30 -75 67 -103 82 -49 25 -56 26 -252 29 l-203 3 0 66 0 65 189
-4 c179 -4 191 -6 242 -31z m-3504 -109 c-3 -8 -6 -5 -6 6 -1 11 2 17 5 13 3
-3 4 -12 1 -19z m2983 -193 l0 -65 -340 0 -341 0 -62 -31 c-34 -17 -81 -49
-104 -72 l-43 -41 0 45 c0 79 85 167 203 210 47 16 86 18 370 19 l317 0 0 -65z
m503 45 c48 -17 145 -96 169 -137 10 -17 21 -55 24 -85 l5 -53 -23 26 c-49 52
-138 118 -175 128 -21 6 -122 11 -225 11 l-188 0 0 66 0 66 188 -5 c117 -2
201 -9 225 -17z m-5096 -112 c-2 -18 -4 -4 -4 32 0 36 2 50 4 33 2 -18 2 -48
0 -65z m10 -140 c-2 -18 -4 -6 -4 27 0 33 2 48 4 33 2 -15 2 -42 0 -60z m5112
-33 c108 -60 171 -145 171 -233 l0 -30 -58 58 c-107 106 -65 100 -647 100
l-505 0 0 63 c0 35 3 67 7 71 4 4 226 6 493 4 l485 -3 54 -30z m-5102 -77 c-2
-13 -4 -3 -4 22 0 25 2 35 4 23 2 -13 2 -33 0 -45z m7650 15 c-3 -10 -5 -2 -5
17 0 19 2 27 5 18 2 -10 2 -26 0 -35z m-7640 -80 c-3 -10 -5 -4 -5 12 0 17 2
24 5 18 2 -7 2 -21 0 -30z m5993 -58 l0 -65 -260 0 -260 0 0 65 0 65 260 0
260 0 0 -65z m-5983 13 c-3 -8 -6 -5 -6 6 -1 11 2 17 5 13 3 -3 4 -12 1 -19z
m16 -93 c5 -28 4 -34 -3 -20 -8 19 -14 73 -6 64 2 -2 6 -22 9 -44z m14 -97
c-3 -7 -5 -2 -5 12 0 14 2 19 5 13 2 -7 2 -19 0 -25z m5672 -58 l2 -60 -120 0
-121 0 0 60 0 60 118 0 119 0 2 -60z m878 45 c48 -14 133 -78 152 -114 5 -9
12 -40 16 -70 l7 -53 -48 50 c-78 80 -90 82 -536 82 l-378 0 0 60 0 60 368 0
c298 0 378 -3 419 -15z m-1514 -138 c66 -30 154 -108 173 -154 8 -18 14 -49
14 -69 l0 -37 -52 50 c-29 27 -75 63 -103 79 l-50 29 -332 3 -333 3 0 66 0 66
313 -5 c311 -5 313 -5 370 -31z m637 -138 l0 -59 -119 0 -118 0 -2 60 -2 59
113 3 c62 2 116 2 121 0 4 -2 7 -30 7 -63z m1770 -186 c-11 -17 -11 -17 -6 0
3 10 6 24 7 30 0 9 2 9 5 0 3 -7 0 -20 -6 -30z m-4549 10 c13 -16 12 -17 -3
-4 -17 13 -22 21 -14 21 2 0 10 -8 17 -17z m3664 -48 c57 -27 123 -82 140
-115 8 -16 15 -49 15 -73 l0 -44 -42 40 c-23 22 -62 49 -87 61 -45 20 -61 21
-598 24 l-553 3 0 58 c0 32 3 61 7 65 4 4 249 6 543 4 505 -3 537 -4 575 -23z
m-3594 -22 c13 -16 12 -17 -3 -4 -17 13 -22 21 -14 21 2 0 10 -8 17 -17z
m2060 -120 c40 -13 72 -34 123 -83 68 -65 69 -67 74 -125 l5 -60 -56 52 c-31
28 -80 63 -109 77 -48 24 -62 26 -180 26 l-128 0 0 65 0 65 109 0 c76 0 125
-5 162 -17z m2340 -46 c-10 -9 -11 -8 -5 6 3 10 9 15 12 12 3 -3 0 -11 -7 -18z
m-1421 -114 l0 -63 -245 0 c-135 0 -248 -1 -252 -2 -9 -3 -17 98 -10 116 3 8
80 11 256 11 l251 0 0 -62z m-2614 -45 l29 -33 -32 29 c-31 28 -38 36 -30 36
2 0 16 -15 33 -32z m3955 -21 c-10 -9 -11 -8 -5 6 3 10 9 15 12 12 3 -3 0 -11
-7 -18z m-2225 -55 c62 -34 114 -78 141 -119 11 -17 36 -133 28 -133 0 0 -27
25 -59 56 -31 31 -83 68 -114 82 l-57 27 -530 3 c-568 3 -612 1 -697 -45 l-47
-26 -30 25 -30 26 27 24 c41 38 118 88 160 103 30 11 139 14 592 12 l555 -2
61 -33z m-1486 -115 c0 -4 -16 4 -35 19 -45 34 -45 41 0 12 19 -13 35 -27 35
-31z m225 -79 c62 -44 49 -48 -17 -4 -29 20 -47 36 -41 36 7 0 33 -14 58 -32z
m1201 -43 c66 -19 156 -85 194 -141 25 -35 32 -58 35 -104 2 -33 2 -60 1 -60
-1 0 -17 20 -34 44 -18 24 -53 60 -80 79 -89 66 -102 67 -623 67 l-467 0 -85
58 c-48 31 -86 60 -87 65 0 4 247 7 548 7 456 0 557 -3 598 -15z m614 -155 l0
-60 -80 0 c-44 0 -83 -1 -87 -2 -5 -2 -9 25 -11 60 l-3 62 91 0 90 0 0 -60z
m-1461 -40 l101 -60 372 -3 c369 -2 373 -2 421 -26 59 -29 150 -111 166 -150
7 -15 11 -45 9 -66 l-3 -37 -50 46 c-27 25 -77 60 -110 78 l-60 33 -265 5
-265 5 -93 53 c-51 29 -97 50 -102 47 -7 -5 -110 50 -186 100 -109 71 -66 54
65 -25z m1 -66 c0 -2 -9 0 -20 6 -11 6 -20 13 -20 16 0 2 9 0 20 -6 11 -6 20
-13 20 -16z m45 -13 c-3 -2 3 -10 13 -18 12 -10 8 -9 -15 2 -38 18 -40 21 -13
21 10 0 17 -2 15 -5z m215 -87 c0 -2 -9 0 -20 6 -11 6 -20 13 -20 16 0 2 9 0
20 -6 11 -6 20 -13 20 -16z m2173 -207 c58 -25 62 -40 22 -76 l-36 -31 -569 0
-570 0 0 60 0 60 560 0 c447 0 567 -3 593 -13z m1381 -72 c-9 -14 -18 -25 -21
-25 -5 0 5 18 20 38 17 22 18 13 1 -13z"/>
<path d="M1500 7343 c-70 -63 -209 -198 -204 -198 3 0 147 132 244 222 73 68
41 49 -40 -24z"/>
<path d="M1201 7048 c-63 -68 -141 -159 -100 -118 73 73 172 180 166 180 -4 0
-33 -28 -66 -62z"/>
<path d="M1029 6848 c-24 -29 -36 -47 -26 -39 20 16 81 91 74 91 -2 0 -24 -24
-48 -52z"/>
<path d="M973 6778 c-43 -57 -66 -91 -58 -86 12 7 78 98 72 98 -3 0 -9 -6 -14
-12z"/>
<path d="M880 6650 c-12 -16 -19 -30 -16 -30 2 0 14 14 26 30 12 17 19 30 16
30 -2 0 -14 -13 -26 -30z"/>
<path d="M802 6534 c-23 -35 -40 -64 -37 -64 6 0 87 121 83 125 -1 2 -22 -26
-46 -61z"/>
<path d="M740 6440 c-6 -11 -8 -20 -6 -20 3 0 10 9 16 20 6 11 8 20 6 20 -3 0
-10 -9 -16 -20z"/>
<path d="M717 6403 c-2 -5 -17 -30 -32 -58 -16 -27 -24 -45 -18 -40 14 14 66
105 60 105 -3 0 -8 -3 -10 -7z"/>
<path d="M635 6260 c-9 -16 -13 -30 -11 -30 3 0 12 14 21 30 9 17 13 30 11 30
-3 0 -12 -13 -21 -30z"/>
<path d="M539 6079 c-33 -67 -59 -123 -57 -125 2 -2 32 53 66 121 34 69 60
125 57 125 -3 0 -32 -54 -66 -121z"/>
<path d="M2963 6143 c9 -2 23 -2 30 0 6 3 -1 5 -18 5 -16 0 -22 -2 -12 -5z"/>
<path d="M2898 6133 c7 -3 16 -2 19 1 4 3 -2 6 -13 5 -11 0 -14 -3 -6 -6z"/>
<path d="M2808 6113 c7 -3 16 -2 19 1 4 3 -2 6 -13 5 -11 0 -14 -3 -6 -6z"/>
<path d="M2735 6100 c-25 -11 1 -11 35 0 20 6 21 8 5 8 -11 0 -29 -3 -40 -8z"/>
<path d="M2620 6060 c-8 -5 -10 -10 -5 -10 6 0 17 5 25 10 8 5 11 10 5 10 -5
0 -17 -5 -25 -10z"/>
<path d="M2560 6040 c-8 -5 -10 -10 -5 -10 6 0 17 5 25 10 8 5 11 10 5 10 -5
0 -17 -5 -25 -10z"/>
<path d="M2500 6015 c-14 -8 -20 -14 -15 -14 6 0 21 6 35 14 14 8 21 14 15 14
-5 0 -21 -6 -35 -14z"/>
<path d="M2405 5970 c-3 -6 1 -7 9 -4 18 7 21 14 7 14 -6 0 -13 -4 -16 -10z"/>
<path d="M2283 5895 c-28 -19 -55 -39 -58 -46 -6 -9 83 49 110 73 21 19 -4 6
-52 -27z"/>
<path d="M4358 5833 c133 -2 351 -2 485 0 133 1 24 2 -243 2 -267 0 -376 -1
-242 -2z"/>
<path d="M5133 5823 c9 -2 23 -2 30 0 6 3 -1 5 -18 5 -16 0 -22 -2 -12 -5z"/>
<path d="M5233 5800 c69 -27 131 -82 161 -142 14 -28 26 -46 26 -40 0 27 -40
90 -80 126 -43 38 -112 76 -140 75 -8 0 7 -8 33 -19z"/>
<path d="M3929 5772 c-24 -16 -51 -37 -59 -47 -8 -10 6 -3 31 16 25 19 55 39
65 46 10 6 17 12 13 12 -3 1 -25 -12 -50 -27z"/>
<path d="M3840 5679 c-6 -11 -10 -25 -8 -30 2 -5 8 4 15 21 13 34 9 40 -7 9z"/>
<path d="M6673 3933 c9 -2 23 -2 30 0 6 3 -1 5 -18 5 -16 0 -22 -2 -12 -5z"/>
<path d="M6728 3923 c7 -3 16 -2 19 1 4 3 -2 6 -13 5 -11 0 -14 -3 -6 -6z"/>
<path d="M6838 3871 c13 -11 32 -30 43 -43 l20 -23 -16 27 c-9 15 -28 34 -43
43 l-27 16 23 -20z"/>
<path d="M4835 1820 c3 -5 8 -10 11 -10 2 0 4 5 4 10 0 6 -5 10 -11 10 -5 0
-7 -4 -4 -10z"/>
<path d="M4903 1813 c4 -6 -5 -8 -21 -5 -32 5 -21 -8 20 -26 22 -9 27 -8 30 4
2 12 10 11 42 -6 21 -12 40 -19 43 -16 3 2 -12 13 -34 24 -50 26 -87 37 -80
25z"/>
<path d="M5080 1730 c0 -4 -10 -6 -22 -3 -27 7 -23 1 11 -17 15 -8 21 -8 17
-1 -9 14 5 14 40 1 15 -6 28 -9 30 -7 3 2 -14 11 -36 20 -22 8 -40 12 -40 7z"/>
<path d="M5400 1552 c8 -5 26 -13 40 -16 17 -5 20 -4 10 2 -8 5 -26 13 -40 16
-17 5 -20 4 -10 -2z"/>
<path d="M5496 1515 c17 -7 44 -16 60 -20 25 -4 24 -3 -6 8 -19 8 -46 17 -60
20 -19 5 -17 3 6 -8z"/>
<path d="M5600 1480 c8 -5 22 -9 30 -9 10 0 8 3 -5 9 -27 12 -43 12 -25 0z"/>
<path d="M5725 1440 c11 -5 27 -9 35 -9 9 0 8 4 -5 9 -11 5 -27 9 -35 9 -9 0
-8 -4 5 -9z"/>
<path d="M5788 1423 c7 -3 16 -2 19 1 4 3 -2 6 -13 5 -11 0 -14 -3 -6 -6z"/>
<path d="M5858 1403 c7 -3 16 -2 19 1 4 3 -2 6 -13 5 -11 0 -14 -3 -6 -6z"/>
<path d="M5898 1393 c7 -3 16 -2 19 1 4 3 -2 6 -13 5 -11 0 -14 -3 -6 -6z"/>
<path d="M5938 1383 c7 -3 16 -2 19 1 4 3 -2 6 -13 5 -11 0 -14 -3 -6 -6z"/>
<path d="M5978 1373 c7 -3 16 -2 19 1 4 3 -2 6 -13 5 -11 0 -14 -3 -6 -6z"/>
<path d="M6055 1355 c28 -7 59 -13 70 -13 11 0 -2 6 -30 13 -27 7 -59 13 -70
13 -11 0 3 -6 30 -13z"/>
<path d="M6158 1333 c7 -3 16 -2 19 1 4 3 -2 6 -13 5 -11 0 -14 -3 -6 -6z"/>
<path d="M6438 1333 c7 -3 16 -2 19 1 4 3 -2 6 -13 5 -11 0 -14 -3 -6 -6z"/>
<path d="M6213 1323 c9 -2 23 -2 30 0 6 3 -1 5 -18 5 -16 0 -22 -2 -12 -5z"/>
<path d="M6480 1326 c0 -2 11 -6 25 -8 13 -3 22 -1 19 3 -5 9 -44 13 -44 5z"/>
<path d="M6273 1313 c9 -2 23 -2 30 0 6 3 -1 5 -18 5 -16 0 -22 -2 -12 -5z"/>
<path d="M6558 1313 c12 -2 32 -2 45 0 12 2 2 4 -23 4 -25 0 -35 -2 -22 -4z"/>
<path d="M6338 1303 c12 -2 30 -2 40 0 9 3 -1 5 -23 4 -22 0 -30 -2 -17 -4z"/>
<path d="M6653 1303 c15 -2 37 -2 50 0 12 2 0 4 -28 4 -27 0 -38 -2 -22 -4z"/>
<path d="M6423 1293 c9 -2 23 -2 30 0 6 3 -1 5 -18 5 -16 0 -22 -2 -12 -5z"/>
<path d="M6778 1293 c29 -2 74 -2 100 0 26 2 2 3 -53 3 -55 0 -76 -1 -47 -3z"/>
<path d="M6523 1283 c15 -2 37 -2 50 0 12 2 0 4 -28 4 -27 0 -38 -2 -22 -4z"/>
<path d="M6957 1283 c18 -2 50 -2 70 0 21 2 7 4 -32 4 -38 0 -55 -2 -38 -4z"/>
<path d="M6668 1273 c28 -2 76 -2 105 0 28 2 5 3 -53 3 -58 0 -81 -1 -52 -3z"/>
</g>
</svg>
