<?xml version="1.0" standalone="no"?>
<!DOCTYPE svg PUBLIC "-//W3C//DTD SVG 20010904//EN"
 "http://www.w3.org/TR/2001/REC-SVG-20010904/DTD/svg10.dtd">
<svg version="1.0" xmlns="http://www.w3.org/2000/svg"
 width="767.000000pt" height="590.000000pt" viewBox="0 0 767.000000 590.000000"
 preserveAspectRatio="xMidYMid meet">

<g transform="translate(0.000000,590.000000) scale(0.100000,-0.100000)"
fill="#000000" stroke="none">
<path d="M0 2950 l0 -2950 3835 0 3835 0 0 2950 0 2950 -3835 0 -3835 0 0
-2950z m4183 2336 c772 -126 1420 -587 1776 -1268 268 -509 341 -1077 215
-1647 -63 -284 -197 -603 -347 -826 -58 -87 -110 -149 -201 -242 -44 -46 -76
-83 -69 -83 28 0 155 46 223 80 199 102 303 251 346 495 l7 40 14 -55 c8 -30
17 -122 20 -205 4 -131 2 -161 -16 -233 -53 -214 -198 -387 -404 -482 -164
-76 -344 -105 -609 -98 l-179 5 -91 -44 c-457 -224 -1013 -294 -1518 -192
-913 184 -1640 873 -1866 1767 -61 242 -69 309 -69 602 0 232 3 281 23 393
113 631 440 1166 942 1542 329 247 747 411 1180 464 112 14 507 6 623 -13z"/>
<path d="M3585 4919 c-735 -99 -1337 -546 -1627 -1209 -116 -265 -167 -513
-168 -810 0 -240 30 -430 100 -643 202 -607 684 -1088 1292 -1291 239 -80 540
-117 779 -98 149 12 359 49 359 63 0 5 -4 9 -10 9 -22 0 -247 103 -343 156
-619 348 -1233 980 -1477 1523 -98 217 -135 379 -134 581 0 195 29 303 123
464 91 155 239 260 451 319 98 28 182 42 140 25 -219 -94 -317 -173 -390 -318
-57 -115 -65 -153 -65 -320 1 -138 4 -166 28 -254 103 -374 384 -776 782
-1121 134 -116 125 -112 182 -78 l48 28 263 3 262 3 0 -35 0 -35 -280 -3
c-188 -2 -283 -7 -290 -14 -8 -8 2 -21 38 -48 l50 -36 338 0 c202 0 354 -4
376 -10 44 -13 93 -52 113 -91 24 -46 17 -53 -20 -20 -56 49 -83 52 -404 49
l-294 -3 77 -47 77 -48 215 0 c171 0 222 -3 252 -15 43 -19 79 -50 98 -87 22
-42 17 -51 -13 -23 -56 51 -79 56 -255 53 l-163 -3 70 -36 c106 -55 266 -123
400 -169 198 -68 468 -129 518 -116 12 3 42 26 67 51 l44 45 -272 0 -272 0 0
40 0 40 308 0 308 0 29 30 29 30 -252 0 -252 0 0 36 0 35 278 -3 279 -3 27 35
27 34 -28 16 c-24 13 -86 15 -391 18 l-363 3 3 32 3 32 328 3 c351 2 385 -1
437 -45 38 -31 35 -33 115 87 73 110 185 339 225 460 105 325 127 759 55 1115
-149 739 -708 1341 -1439 1550 -177 50 -297 67 -516 70 -113 2 -236 0 -275 -6z
m843 -1094 c43 -19 79 -50 98 -87 22 -43 16 -54 -13 -25 -59 56 -69 57 -483
57 -414 0 -424 -1 -482 -57 -30 -29 -36 -18 -14 25 19 37 54 68 96 86 53 23
743 23 798 1z m-508 -190 l0 -35 -141 0 c-151 0 -179 -7 -232 -55 -15 -14 -27
-21 -27 -15 0 19 27 64 52 86 51 47 76 53 216 54 l132 0 0 -35z m513 19 c42
-21 75 -52 93 -86 21 -40 18 -41 -32 -5 l-46 32 -226 5 -227 5 -3 33 -3 32
206 0 c170 0 212 -3 238 -16z m-513 -188 l0 -34 -142 -4 c-150 -4 -182 -12
-235 -61 -29 -26 -29 -15 -1 35 24 42 71 76 122 88 17 5 82 8 144 9 l112 1 0
-34z m528 4 c26 -14 54 -42 68 -66 30 -51 31 -63 2 -37 -60 54 -79 58 -310 61
l-218 3 0 28 c0 15 3 31 8 35 4 4 97 6 207 4 191 -3 202 -4 243 -28z m-268
-175 l0 -35 -258 0 c-141 0 -273 -4 -291 -10 -19 -5 -52 -23 -73 -40 -42 -34
-49 -25 -17 26 25 40 63 69 109 82 19 6 146 11 283 11 l247 1 0 -35z m264 10
c38 -18 96 -86 96 -112 0 -9 -13 -3 -38 17 -49 39 -89 50 -179 50 l-73 0 0 36
0 37 78 -5 c45 -3 93 -12 116 -23z m-754 -195 c0 -24 -5 -31 -27 -36 -48 -10
-85 -27 -114 -52 -32 -27 -35 -23 -15 16 28 53 92 100 139 101 12 1 17 -7 17
-29z m773 0 c32 -22 77 -84 77 -106 0 -4 -10 2 -22 13 -63 57 -67 58 -425 61
l-333 3 0 30 0 30 333 -3 334 -3 36 -25z m-383 -165 l0 -35 -208 0 c-114 0
-223 -4 -241 -10 -19 -5 -52 -23 -73 -40 -42 -34 -49 -25 -17 26 25 40 63 69
109 82 19 6 124 11 233 11 l197 1 0 -35z m364 11 c38 -19 96 -87 96 -113 0 -9
-13 -3 -38 17 -53 42 -89 50 -229 50 l-123 0 0 36 0 36 128 -4 c99 -3 136 -8
166 -22z m-366 -188 l-3 -33 -232 -5 -231 -5 -46 -32 c-50 -36 -53 -35 -32 5
18 35 64 78 96 91 14 5 121 10 238 10 l213 1 -3 -32z m349 21 c34 -13 80 -55
99 -91 20 -38 17 -45 -9 -20 -45 42 -88 52 -232 52 l-135 0 0 35 0 35 124 0
c69 0 137 -5 153 -11z m962 -144 c39 -23 86 -79 96 -115 l7 -25 -17 24 c-10
13 -41 34 -69 47 -51 24 -53 24 -403 24 l-353 0 0 28 c0 16 3 32 7 36 4 4 163
6 353 4 324 -3 347 -4 379 -23z m-942 -42 c43 -23 75 -60 88 -102 7 -23 6 -22
-32 8 -22 17 -55 36 -74 41 -19 6 -173 10 -351 10 l-318 0 0 36 0 35 323 -3
c311 -3 323 -4 364 -25z m-757 -11 c0 -25 -5 -29 -47 -40 -27 -7 -65 -27 -87
-44 -37 -30 -38 -30 -31 -7 19 60 88 117 143 119 18 0 22 -6 22 -28z m1270
-92 l0 -30 -155 0 -155 0 0 30 0 30 155 0 155 0 0 -30z m423 14 c45 -23 66
-44 88 -86 27 -52 24 -54 -22 -15 -54 47 -102 57 -273 57 l-146 0 0 30 0 30
160 0 c129 0 167 -3 193 -16z m-955 -79 c43 -19 79 -50 98 -87 24 -46 16 -51
-26 -15 -23 19 -55 37 -72 41 -17 3 -196 6 -398 6 -202 0 -381 -3 -398 -6 -17
-4 -49 -22 -72 -41 -42 -36 -50 -31 -26 15 19 37 54 68 96 86 53 23 743 23
798 1z m357 -95 c0 -24 -3 -25 -67 -28 l-68 -3 0 31 0 31 68 -3 c64 -3 67 -4
67 -28z m598 14 c45 -23 66 -44 88 -86 27 -52 24 -54 -22 -15 -22 19 -60 40
-84 46 -26 6 -139 11 -274 11 l-231 0 0 30 0 30 245 0 c207 0 251 -3 278 -16z
m-1463 -108 l0 -35 -154 -3 -154 -3 -46 -32 c-25 -18 -46 -30 -46 -27 0 13 30
61 52 81 50 46 76 53 216 53 l132 0 0 -34z m544 0 c34 -26 76 -80 76 -98 0 -4
-21 7 -46 25 l-46 32 -226 5 -227 5 -3 33 -3 33 219 -3 219 -3 37 -29z m319
-47 c22 -35 2 -49 -68 -49 -65 0 -65 0 -65 28 0 16 3 32 7 36 14 14 115 2 126
-15z m562 10 c54 -15 101 -52 125 -99 28 -55 25 -57 -19 -17 -22 20 -57 40
-78 46 -22 6 -139 11 -275 11 l-238 0 0 29 c0 16 6 32 13 34 25 11 432 7 472
-4z m-888 -126 c23 -14 51 -43 62 -63 27 -49 27 -59 -1 -33 -13 11 -39 29 -58
39 -32 18 -64 19 -430 19 -366 0 -398 -1 -430 -19 -19 -10 -45 -28 -57 -39
-29 -26 -29 -16 -2 33 11 20 39 49 62 63 l41 27 386 0 386 0 41 -27z m918 -62
c46 -21 89 -64 104 -104 l11 -28 -38 31 c-21 17 -54 35 -73 40 -19 6 -183 10
-381 10 l-348 0 0 35 0 35 343 0 c312 0 346 -2 382 -19z m-928 -99 c41 -21 93
-83 93 -110 0 -8 -15 -1 -38 18 -49 39 -89 50 -179 50 l-73 0 0 36 0 37 78 -5
c52 -3 91 -12 119 -26z m513 -97 l0 -36 -152 3 -153 3 -3 33 -3 32 155 0 156
0 0 -35z m428 16 c46 -24 67 -46 88 -96 l16 -40 -29 26 c-54 50 -68 54 -253
59 l-175 5 -3 33 -3 32 161 0 c138 0 166 -3 198 -19z m-638 -356 l0 -35 -50 0
-50 0 0 35 0 35 50 0 50 0 0 -35z"/>
</g>
</svg>
